<svg width="12" height="12" viewBox="0 0 12 12" fill="none" xmlns="http://www.w3.org/2000/svg">
<path d="M9.47368 9.47368C9.80869 9.47368 10.13 9.60677 10.3669 9.84365C10.6038 10.0805 10.7368 10.4018 10.7368 10.7368C10.7368 11.0719 10.6038 11.3931 10.3669 11.63C10.13 11.8669 9.80869 12 9.47368 12C9.13867 12 8.81738 11.8669 8.5805 11.63C8.34361 11.3931 8.21053 11.0719 8.21053 10.7368C8.21053 10.4018 8.34361 10.0805 8.5805 9.84365C8.81738 9.60677 9.13867 9.47368 9.47368 9.47368ZM9.47368 10.1053C9.30618 10.1053 9.14553 10.1718 9.02709 10.2902C8.90865 10.4087 8.8421 10.5693 8.8421 10.7368C8.8421 10.9043 8.90865 11.065 9.02709 11.1834C9.14553 11.3019 9.30618 11.3684 9.47368 11.3684C9.64119 11.3684 9.80183 11.3019 9.92028 11.1834C10.0387 11.065 10.1053 10.9043 10.1053 10.7368C10.1053 10.5693 10.0387 10.4087 9.92028 10.2902C9.80183 10.1718 9.64119 10.1053 9.47368 10.1053ZM3.78947 9.47368C4.12448 9.47368 4.44577 9.60677 4.68266 9.84365C4.91955 10.0805 5.05263 10.4018 5.05263 10.7368C5.05263 11.0719 4.91955 11.3931 4.68266 11.63C4.44577 11.8669 4.12448 12 3.78947 12C3.45446 12 3.13317 11.8669 2.89629 11.63C2.6594 11.3931 2.52632 11.0719 2.52632 10.7368C2.52632 10.4018 2.6594 10.0805 2.89629 9.84365C3.13317 9.60677 3.45446 9.47368 3.78947 9.47368ZM3.78947 10.1053C3.62197 10.1053 3.46132 10.1718 3.34288 10.2902C3.22444 10.4087 3.15789 10.5693 3.15789 10.7368C3.15789 10.9043 3.22444 11.065 3.34288 11.1834C3.46132 11.3019 3.62197 11.3684 3.78947 11.3684C3.95698 11.3684 4.11762 11.3019 4.23607 11.1834C4.35451 11.065 4.42105 10.9043 4.42105 10.7368C4.42105 10.5693 4.35451 10.4087 4.23607 10.2902C4.11762 10.1718 3.95698 10.1053 3.78947 10.1053ZM10.7368 1.89474H2.06526L3.67579 5.68421H8.8421C9.05053 5.68421 9.23368 5.58316 9.34737 5.43158L11.2421 2.90526C11.3242 2.79789 11.3684 2.66526 11.3684 2.52632C11.3684 2.35881 11.3019 2.19817 11.1834 2.07972C11.065 1.96128 10.9043 1.89474 10.7368 1.89474ZM8.8421 6.31579H3.70737L3.22105 7.30105L3.15789 7.57895C3.15789 7.74645 3.22444 7.9071 3.34288 8.02554C3.46132 8.14398 3.62197 8.21053 3.78947 8.21053H10.7368V8.8421H3.78947C3.45446 8.8421 3.13317 8.70902 2.89629 8.47213C2.6594 8.23525 2.52632 7.91396 2.52632 7.57895C2.52613 7.36465 2.58046 7.15383 2.68421 6.96632L3.13895 6.03789L0.846316 0.631579H0V0H1.26316L1.8 1.26316H10.7368C11.0719 1.26316 11.3931 1.39624 11.63 1.63313C11.8669 1.87002 12 2.19131 12 2.52632C12 2.84211 11.8926 3.10737 11.7158 3.32211L9.87789 5.77895C9.65053 6.10105 9.27158 6.31579 8.8421 6.31579Z" fill="#05BCCA"/>
</svg>
