<svg width="64" height="64" viewBox="0 0 64 64" fill="none" xmlns="http://www.w3.org/2000/svg">
<g clip-path="url(#clip0_1_2203)">
<path d="M58.0775 0.000132047C57.4473 0.000132047 56.7876 0.211824 56.3076 0.691824L55.3083 1.76998L54.8455 1.38598C54.7313 1.26669 54.5941 1.17176 54.4422 1.10691C54.2904 1.04205 54.1269 1.00862 53.9618 1.00862C53.7966 1.00862 53.6332 1.04205 53.4813 1.10691C53.3295 1.17176 53.1923 1.26669 53.0781 1.38598C52.9588 1.50018 52.8639 1.63735 52.799 1.78922C52.7342 1.9411 52.7007 2.10453 52.7007 2.26967C52.7007 2.43481 52.7342 2.59824 52.799 2.75012C52.8639 2.90199 52.9588 3.03916 53.0781 3.15336L53.4621 3.61613L52.8467 4.23152L52.3839 3.84506C52.2697 3.72577 52.1326 3.63084 51.9807 3.56598C51.8288 3.50113 51.6654 3.4677 51.5003 3.4677C51.3351 3.4677 51.1717 3.50113 51.0198 3.56598C50.8679 3.63084 50.7308 3.72577 50.6166 3.84506C50.4965 3.95932 50.4009 4.09679 50.3356 4.24912C50.2703 4.40145 50.2366 4.56547 50.2366 4.73121C50.2366 4.89695 50.2703 5.06096 50.3356 5.21329C50.4009 5.36562 50.4965 5.5031 50.6166 5.61736L51.0006 6.07767L50.5378 6.53798C50.2393 6.83343 50.0249 7.2031 49.9168 7.60893C49.8086 8.01475 49.8105 8.44208 49.9224 8.8469L39.1532 19.6161C36.9304 17.6715 33.5679 15.3847 29.9224 15.3847C28.3052 15.3847 26.6436 15.8771 24.9993 16.9995C21.3513 19.4931 22.0504 23.2715 19.7686 25.4623C17.2086 27.9238 10.2104 25.9398 3.76856 32.3841C-2.67329 38.8235 0.182096 47.7318 8.38394 55.6161C13.3021 60.7312 18.5944 63.7687 23.4609 63.7687C26.3926 63.7687 29.1913 62.6561 31.6159 60.2315C38.0578 53.7897 36.0738 46.7964 38.5378 44.2315C40.7286 41.9546 44.5809 42.7275 47.0769 39.0771C50.7372 33.7281 47.2049 28.0715 44.3839 24.8469L55.1532 14.0777C55.9655 14.2844 56.8246 14.0998 57.4621 13.4623L57.9224 12.9995L58.3852 13.386C58.4912 13.5055 58.6212 13.6014 58.7666 13.6675C58.912 13.7337 59.0697 13.7686 59.2295 13.77C59.576 13.7676 59.9077 13.6288 60.1526 13.3835C60.2718 13.2693 60.3668 13.1321 60.4316 12.9803C60.4965 12.8284 60.5299 12.665 60.5299 12.4998C60.5299 12.3347 60.4965 12.1713 60.4316 12.0194C60.3668 11.8675 60.2718 11.7303 60.1526 11.6161L59.7686 11.1534L60.3839 10.538L60.8467 10.9244C60.9528 11.0439 61.0827 11.1399 61.2281 11.206C61.3736 11.2721 61.5313 11.307 61.691 11.3084C62.0376 11.3061 62.3692 11.1672 62.6141 10.922C62.7334 10.8078 62.8283 10.6706 62.8932 10.5187C62.958 10.3669 62.9915 10.2034 62.9915 10.0383C62.9915 9.87315 62.958 9.70971 62.8932 9.55784C62.8283 9.40597 62.7334 9.2688 62.6141 9.15459L62.2301 8.69182L63.3083 7.69244C63.5367 7.46589 63.7181 7.19633 63.8419 6.89932C63.9656 6.60232 64.0293 6.28374 64.0293 5.96198C64.0293 5.64022 63.9656 5.32164 63.8419 5.02463C63.7181 4.72763 63.5367 4.45807 63.3083 4.23152L59.7661 0.689363C59.5461 0.465953 59.2829 0.289639 58.9926 0.171151C58.7023 0.0526618 58.391 -0.00552447 58.0775 0.000132047ZM57.9224 2.92444C58.1119 2.92444 58.3162 2.93429 58.4615 3.07706C58.6002 3.22224 58.6776 3.41532 58.6776 3.61613C58.6776 3.81694 58.6002 4.01002 58.4615 4.15521L53.5384 9.07829C53.3954 9.22191 53.202 9.30405 52.9993 9.30721C52.7974 9.30174 52.6053 9.21891 52.4627 9.07582C52.3247 8.93076 52.2477 8.7382 52.2477 8.53798C52.2477 8.33776 52.3247 8.14519 52.4627 8.00013L57.3858 3.07706C57.5286 2.93429 57.7353 2.92444 57.9224 2.92444ZM60.3839 5.38598C60.5735 5.38598 60.7778 5.39336 60.923 5.53859C61.0623 5.68349 61.1401 5.87668 61.1401 6.07767C61.1401 6.27866 61.0623 6.47185 60.923 6.61675L55.9999 11.5398C55.8564 11.6826 55.6633 11.7646 55.4609 11.7687C55.2593 11.7639 55.0672 11.682 54.9242 11.5398C54.7855 11.3946 54.7081 11.2016 54.7081 11.0007C54.7081 10.7999 54.7855 10.6069 54.9242 10.4617L59.8473 5.53859C59.9901 5.39582 60.1969 5.38598 60.3839 5.38598ZM29.9224 18.8432C32.2855 18.8432 34.7815 20.4481 36.6916 22.0752L28.4603 30.3066C28.2781 30.2869 28.1107 30.2278 27.9236 30.2278C26.3747 30.233 24.8908 30.8506 23.7955 31.9459C22.7003 33.0411 22.0827 34.5251 22.0775 36.074C22.0827 37.6229 22.7003 39.1069 23.7955 40.2021C24.8908 41.2973 26.3747 41.9149 27.9236 41.9201C29.4725 41.9149 30.9565 41.2973 32.0518 40.2021C33.147 39.1069 33.7646 37.6229 33.7698 36.074C33.7698 35.8869 33.7107 35.7195 33.6935 35.5349L41.9987 27.2297C44.1353 29.706 46.5476 33.6887 44.2313 37.0758C43.4781 38.1737 42.5304 38.5774 40.8467 39.1509C39.3649 39.6555 37.5113 40.2709 35.9999 41.8438C34.3409 43.5694 33.9716 45.8389 33.5384 48.2291C32.9919 51.2297 32.379 54.6217 29.1544 57.8438C27.4609 59.5374 25.595 60.3817 23.4609 60.3817C19.7267 60.3817 15.2467 57.8069 10.8455 53.2284C10.8213 53.2018 10.7958 53.1763 10.7692 53.1521C6.22763 48.7928 3.65287 44.3324 3.61594 40.6155C3.59133 38.4469 4.4381 36.5663 6.15379 34.8457C9.3784 31.6211 12.7704 31.0057 15.7686 30.4617C18.1587 30.0284 20.4307 29.5829 22.1538 27.9238C23.7144 26.4272 24.3323 24.618 24.8467 23.1534C25.4375 21.4746 25.8067 20.6081 26.9242 19.8451C27.8793 19.1927 28.8689 18.8432 29.9224 18.8432ZM13.691 40.074C13.4889 40.0784 13.2964 40.1614 13.1544 40.3054L11.6159 41.8463C11.4749 41.9903 11.3959 42.1838 11.3959 42.3854C11.3959 42.5869 11.4749 42.7804 11.6159 42.9244L21.0756 52.3841C21.3661 52.6721 21.8633 52.6721 22.1538 52.3841L23.6922 50.8457C23.8314 50.7012 23.9091 50.5084 23.9091 50.3078C23.9091 50.1072 23.8314 49.9145 23.6922 49.77L14.2301 40.3078C14.0881 40.1639 13.8956 40.0809 13.6935 40.0764L13.691 40.074Z" fill="#C46A2B"/>
</g>
<defs>
<clipPath id="clip0_1_2203">
<rect width="64" height="64" fill="white"/>
</clipPath>
</defs>
</svg>
