<svg width="12" height="12" viewBox="0 0 12 12" fill="none" xmlns="http://www.w3.org/2000/svg">
<path d="M11.4202 11.8999C11.7307 12.2087 12.2099 11.7321 11.8994 11.4301L9.36835 8.90648C10.2564 7.92973 10.7472 6.65932 10.7453 5.34254C10.7453 2.39609 8.33567 0 5.37263 0C2.40958 0 0 2.39609 0 5.34254C0 8.289 2.40958 10.6851 5.37263 10.6851C6.70904 10.6851 7.9442 10.1951 8.88914 9.38301L11.4202 11.8999ZM0.674278 5.34254C0.674278 2.76524 2.78688 0.671174 5.37195 0.671174C7.96377 0.671174 10.0696 2.76524 10.0696 5.34254C10.0696 7.91985 7.96377 10.0139 5.37195 10.0139C2.78688 10.0139 0.674278 7.91985 0.674278 5.34254Z" fill="#05BCCA"/>
</svg>
