<svg width="12" height="12" viewBox="0 0 12 12" fill="none" xmlns="http://www.w3.org/2000/svg">
<path d="M11.945 11.4363C11.0161 9.76566 9.55794 8.59342 7.86357 8.09627C8.68734 7.66042 9.34607 6.94851 9.73355 6.07532C10.121 5.20213 10.2147 4.21856 9.99937 3.2832C9.78408 2.34785 9.27239 1.51522 8.54682 0.919578C7.82125 0.323937 6.92409 0 6 0C5.07591 0 4.17875 0.323937 3.45318 0.919578C2.72761 1.51522 2.21592 2.34785 2.00063 3.2832C1.78533 4.21856 1.87897 5.20213 2.26645 6.07532C2.65393 6.94851 3.31266 7.66042 4.13643 8.09627C2.44206 8.59281 0.983868 9.76505 0.0550203 11.4363C0.0295153 11.478 0.0123896 11.5247 0.00467361 11.5736C-0.00304238 11.6224 -0.00118918 11.6723 0.0101215 11.7204C0.0214323 11.7685 0.0419668 11.8136 0.0704899 11.8532C0.099013 11.8928 0.134935 11.926 0.176095 11.9508C0.217256 11.9755 0.262803 11.9914 0.309998 11.9973C0.357193 12.0033 0.40506 11.9993 0.450719 11.9855C0.496378 11.9717 0.538886 11.9484 0.575686 11.9171C0.612485 11.8858 0.642815 11.847 0.664852 11.8032C1.79345 9.77361 3.78745 8.56223 6 8.56223C8.21255 8.56223 10.2065 9.77361 11.3351 11.8032C11.3572 11.847 11.3875 11.8858 11.4243 11.9171C11.4611 11.9484 11.5036 11.9717 11.5493 11.9855C11.5949 11.9993 11.6428 12.0033 11.69 11.9973C11.7372 11.9914 11.7827 11.9755 11.8239 11.9508C11.8651 11.926 11.901 11.8928 11.9295 11.8532C11.958 11.8136 11.9786 11.7685 11.9899 11.7204C12.0012 11.6723 12.003 11.6224 11.9953 11.5736C11.9876 11.5247 11.9705 11.478 11.945 11.4363ZM2.59246 4.28175C2.59246 3.58028 2.79231 2.89456 3.16674 2.31131C3.54116 1.72806 4.07335 1.27348 4.69599 1.00504C5.31864 0.736595 6.00378 0.666359 6.66478 0.803209C7.32578 0.940058 7.93294 1.27785 8.40949 1.77386C8.88605 2.26987 9.21058 2.90183 9.34206 3.58982C9.47355 4.27781 9.40606 4.99093 9.14816 5.639C8.89025 6.28708 8.45349 6.84099 7.89313 7.23071C7.33276 7.62042 6.67395 7.82843 6 7.82843C5.0966 7.8273 4.23051 7.45327 3.59171 6.78838C2.95291 6.12349 2.59355 5.22204 2.59246 4.28175Z" fill="#2C4246"/>
</svg>
