<svg width="18" height="14" viewBox="0 0 18 14" fill="none" xmlns="http://www.w3.org/2000/svg">
<path fill-rule="evenodd" clip-rule="evenodd" d="M10.47 0.470072C10.6106 0.329622 10.8012 0.250732 11 0.250732C11.1988 0.250732 11.3894 0.329622 11.53 0.470072L17.53 6.47007C17.6705 6.6107 17.7493 6.80132 17.7493 7.00007C17.7493 7.19882 17.6705 7.38945 17.53 7.53007L11.53 13.5301C11.4613 13.6038 11.3785 13.6629 11.2865 13.7039C11.1945 13.7448 11.0952 13.7669 10.9945 13.7687C10.8938 13.7704 10.7938 13.7519 10.7004 13.7142C10.607 13.6765 10.5222 13.6203 10.451 13.5491C10.3797 13.4779 10.3236 13.3931 10.2859 13.2997C10.2482 13.2063 10.2296 13.1063 10.2314 13.0056C10.2332 12.9048 10.2552 12.8055 10.2962 12.7135C10.3372 12.6215 10.3963 12.5387 10.47 12.4701L15.19 7.75007H1C0.801088 7.75007 0.610322 7.67105 0.46967 7.5304C0.329018 7.38975 0.25 7.19898 0.25 7.00007C0.25 6.80116 0.329018 6.61039 0.46967 6.46974C0.610322 6.32909 0.801088 6.25007 1 6.25007H15.19L10.47 1.53007C10.3295 1.38945 10.2507 1.19882 10.2507 1.00007C10.2507 0.801322 10.3295 0.610698 10.47 0.470072Z" fill="#D9D9D9"/>
</svg>
